# xmcd
#
# Track frame offsets:
#   150
#   16493
#   32282
#   46438
#   62236
#   79086
#   92753
#   107609
#   120711
#   138318
#   155414
#   171219
#   184400
#   198612
#   213201
#   226872
#   239381
#   256652
#   272669
#   287310
#
# Disc length: 3978 seconds
#
# Revision: 0
# Processed by: cddbd v1.5.1PL0 Copyright (c) Steve Scherf et al.
# Submitted via: Media_Universe 3.0
#
DISCID=0d0f8814
DTITLE=Tracy Lawrence - I See It Now and Alibis
DYEAR=1900
DGENRE=Country
TTITLE0=I See It Now
TTITLE1=Guilt Trip
TTITLE2=If The World Had A Front Porch
TTITLE3=Texas Tornado
TTITLE4=Hillbilly With A Heartache
TTITLE5=As Any Fool Can See
TTITLE6=God Made Women On A Good Day
TTITLE7=I Got A Feelin'
TTITLE8=The Cards
TTITLE9=I'd Give Anything To Be Your Everything Again
TTITLE10=I Threw The Rest Away
TTITLE11=Cant Break It To My Heart
TTITLE12=We Dnt Love Here Anymore
TTITLE13=Crying Aint Dying
TTITLE14=Alibis
TTITLE15=My Second Home
TTITLE16=Dont Talk To Me That Way
TTITLE17=It Only Takes One Bar (to make a prison)
TTITLE18=Back To Back
TTITLE19=If The Good Die Young
EXTD=
EXTT0=
EXTT1=
EXTT2=
EXTT3=
EXTT4=
EXTT5=
EXTT6=
EXTT7=
EXTT8=
EXTT9=
EXTT10=
EXTT11=
EXTT12=
EXTT13=
EXTT14=
EXTT15=
EXTT16=
EXTT17=
EXTT18=
EXTT19=
PLAYORDER=
